# xmcd
#
# Track frame offsets:
#	150
#	13732
#	26162
#	43815
#	56973
#	70802
#	83457
#	92870
#	107578
#	117829
#	130821
#	143892
#	155860
#	169201
#	182891
#	195520
#	205368
#	217415
#	230490
#	243706
#
# Disc length: 3409 seconds
#
# Revision: 0
# Processed by: cddbd v1.5.2PL0 Copyright (c) Steve Scherf et al.
# Submitted via: dBpowerAMP V4.0
#
DISCID=320d4f14
DTITLE=Lightnin' Slim - Rock Me Mama
DYEAR=2007
DGENRE=Blues
TTITLE0=Bad Luck
TTITLE1=Rock Me Mama
TTITLE2=That's All Right
TTITLE3=Love Me For Myself
TTITLE4=I Can't Live Happy
TTITLE5=New Orleans Bound
TTITLE6=Bugger Bugger Boy
TTITLE7=Ethel Mae
TTITLE8=Schoolboy Cleve: She's Gone
TTITLE9=Schoolboy Cleve: Strange Letter Blues
TTITLE10=Bad Feeling Blues
TTITLE11=Lightnin' Slim Boogie
TTITLE12=Lightnin' Blues
TTITLE13=I Can't Be Successful
TTITLE14=Sugar Plum
TTITLE15=Just Made Twenty One
TTITLE16=Goin' Home
TTITLE17=Wonderin' And Goin'
TTITLE18=Bad Luck And Trouble
TTITLE19=Have Your Way
EXTD=
EXTT0=
EXTT1=
EXTT2=
EXTT3=
EXTT4=
EXTT5=
EXTT6=
EXTT7=
EXTT8=
EXTT9=
EXTT10=
EXTT11=
EXTT12=
EXTT13=
EXTT14=
EXTT15=
EXTT16=
EXTT17=
EXTT18=
EXTT19=
PLAYORDER=
